<svg width="35" height="26" viewBox="0 0 35 26" fill="none" xmlns="http://www.w3.org/2000/svg">
<path d="M34.9742 2.59404C34.9742 2.55405 35.0017 2.51512 34.9999 2.47559L24.3191 12.7671L34.9871 22.7299C34.9934 22.6587 34.9742 22.587 34.9742 22.5143V2.59404V2.59404Z" fill="#A3D4BF"/>
<path d="M22.6887 14.3506L18.3285 18.5457C18.1078 18.7579 17.8229 18.8644 17.5377 18.8644C17.2586 18.8644 16.9794 18.7625 16.7603 18.5583L12.4119 14.5063L1.6742 24.8562C1.93529 24.9501 2.21554 25.0229 2.50902 25.0229H32.5666C33.0024 25.0229 33.4112 24.8901 33.7665 24.6922L22.6887 14.3506Z" fill="#A3D4BF"/>
<path d="M17.5253 16.1536L33.8257 0.451582C33.4566 0.232157 33.0271 0.0849609 32.5666 0.0849609H2.50902C1.90944 0.0849609 1.36004 0.317768 0.93214 0.672832L17.5253 16.1536Z" fill="#A3D4BF"/>
<path d="M0 2.97656V22.5141C0 22.7384 0.0515489 22.9546 0.107508 23.1612L10.712 12.9494L0 2.97656Z" fill="#A3D4BF"/>
</svg>
