<svg width="35" height="36" viewBox="0 0 35 36" fill="none" xmlns="http://www.w3.org/2000/svg">
<path fill-rule="evenodd" clip-rule="evenodd" d="M17.4984 0.3667C7.83495 0.3667 0 8.39994 0 18.3101C0 26.2376 5.01381 32.9623 11.9678 35.336C12.8434 35.5001 13.1625 34.9461 13.1625 34.4702C13.1625 34.045 13.1474 32.916 13.1388 31.4191C8.27112 32.5029 7.24408 29.0134 7.24408 29.0134C6.44802 26.9404 5.30065 26.3885 5.30065 26.3885C3.71175 25.276 5.42098 25.298 5.42098 25.298C7.17748 25.4247 8.10138 27.1475 8.10138 27.1475C9.66236 29.8891 12.1977 29.0971 13.1947 28.6378C13.3537 27.479 13.8049 26.6881 14.3055 26.2398C10.4197 25.7871 6.33414 24.2472 6.33414 17.3716C6.33414 15.4132 7.01633 13.8116 8.13576 12.557C7.95528 12.1032 7.35474 10.2791 8.30658 7.80843C8.30658 7.80843 9.77624 7.32597 13.1195 9.64793C14.515 9.24919 16.0126 9.05092 17.5005 9.04431C18.9863 9.05092 20.4839 9.24919 21.8816 9.64793C25.2227 7.32597 26.6891 7.80843 26.6891 7.80843C27.6442 10.2791 27.0436 12.1032 26.8632 12.557C27.9847 13.8116 28.6626 15.4132 28.6626 17.3716C28.6626 24.2648 24.5706 25.7816 20.6719 26.2255C21.3004 26.7796 21.8601 27.8744 21.8601 29.5487C21.8601 31.9467 21.8386 33.882 21.8386 34.4702C21.8386 34.9505 22.1534 35.5089 23.0418 35.3338C29.9905 32.9557 35 26.2354 35 18.3101C35 8.39994 27.164 0.3667 17.4984 0.3667Z" fill="#A3D4BF"/>
</svg>
