<svg width="30" height="29" viewBox="0 0 30 29" fill="none" xmlns="http://www.w3.org/2000/svg">
<path d="M7.06185 3.75737C7.06185 5.56824 5.69976 7.01983 3.50987 7.01983H3.46907C1.36078 7.02114 0 5.56692 0 3.75737C0 1.90308 1.40421 0.490968 3.55067 0.490968C5.69976 0.489652 7.02237 1.90308 7.06185 3.75737ZM0.36849 28.4897H6.64862V9.60057H0.36849V28.4897ZM22.062 9.15839C18.7312 9.15839 17.2401 10.9877 16.4018 12.2774V12.3379H16.361C16.3768 12.3195 16.3912 12.2984 16.4018 12.2774V9.60189H10.123C10.2045 11.372 10.123 28.491 10.123 28.491H16.4018V17.9416C16.4018 17.3731 16.4399 16.8164 16.6084 16.4097C17.0637 15.2859 18.0981 14.1106 19.8274 14.1106C22.1028 14.1106 23.0122 15.8465 23.0122 18.3838V28.491H29.291V17.6613C29.2923 11.8549 26.1918 9.15839 22.062 9.15839Z" fill="#A3D4BF"/>
</svg>
