<svg width="46" height="96" viewBox="0 0 46 96" fill="none" xmlns="http://www.w3.org/2000/svg">
<path d="M31.4549 27.7322V27.7319C31.4549 23.7808 34.5541 20.6129 38.3825 20.6129C42.2108 20.6129 45.31 23.7808 45.31 27.7319V72.183C45.31 84.7489 35.3061 94.92 23 94.92C10.6938 94.92 0.69 84.7489 0.69 72.183V63.0726C0.69 59.1267 3.82333 55.9536 7.66666 55.9536C11.51 55.9536 14.6433 59.1267 14.6433 63.0726V72.183C14.6433 76.8728 18.4255 80.682 23.0491 80.682C27.675 80.682 31.4353 76.8705 31.4353 72.183L31.4549 27.7322Z" stroke="white" stroke-width="1.38"/>
<path d="M45.3098 7.80898C45.3098 11.7527 42.1744 14.928 38.3332 14.928C34.492 14.928 31.3565 11.7527 31.3565 7.80898C31.3565 3.86526 34.492 0.69 38.3332 0.69C42.1744 0.69 45.3098 3.86526 45.3098 7.80898Z" stroke="white" stroke-width="1.38"/>
<path opacity="0.8" d="M45.3098 27.7319C45.3098 31.6757 42.1744 34.8509 38.3332 34.8509C34.492 34.8509 31.3565 31.6757 31.3565 27.7319C31.3565 23.7882 34.492 20.6129 38.3332 20.6129C42.1744 20.6129 45.3098 23.7882 45.3098 27.7319Z" stroke="white" stroke-width="1.38"/>
<path opacity="0.8" d="M14.6433 62.9724C14.6433 66.9162 11.5079 70.0914 7.66666 70.0914C3.82547 70.0914 0.69 66.9162 0.69 62.9724C0.69 59.0287 3.82547 55.8535 7.66666 55.8535C11.5079 55.8535 14.6433 59.0287 14.6433 62.9724Z" stroke="white" stroke-width="1.38"/>
</svg>
