<svg width="38" height="36" viewBox="0 0 38 36" fill="none" xmlns="http://www.w3.org/2000/svg">
<path opacity="0.9" fill-rule="evenodd" clip-rule="evenodd" d="M37.5449 26.3472C37.3107 25.9632 36.6923 25.7331 35.7687 25.2732C34.8411 24.8141 30.2811 22.5864 29.4323 22.2815C28.5841 21.9755 27.9613 21.8213 27.3469 22.7406C26.7288 23.6607 24.9513 25.7331 24.4088 26.3472C23.8698 26.9624 23.3305 27.0372 22.4029 26.5773C21.4742 26.1182 18.4857 25.1435 14.9464 22.014C12.1923 19.5724 10.3314 16.5637 9.7878 15.6434C9.24985 14.7243 9.73451 14.2268 10.1936 13.7677C10.6118 13.3535 11.122 12.6936 11.5855 12.1584C12.0499 11.6191 12.2039 11.234 12.5131 10.6199C12.8223 10.0058 12.6684 9.47078 12.434 9.0106C12.2039 8.55177 10.3486 4.02454 9.57493 2.18113C8.80662 0.342843 8.0332 0.411465 7.4896 0.411465C6.9503 0.411465 5.94975 0.571856 5.94975 0.571856C5.94975 0.571856 4.09128 0.801946 3.24304 1.72203C2.39454 2.64131 0 4.86873 0 9.39166C0 13.9176 3.31893 18.2936 3.78234 18.9036C4.24655 19.5188 10.1936 29.1102 19.6189 32.7927C29.044 36.4746 29.044 35.2461 30.7442 35.0909C32.4412 34.9415 36.2278 32.8675 37.0013 30.7192C37.775 28.5709 37.775 26.7283 37.5449 26.3472Z" fill="#A3D4BF"/>
</svg>
